<svg width="621" height="626" viewBox="0 0 621 626" fill="none" xmlns="http://www.w3.org/2000/svg">
<g clip-path="url(#clip0_82_343)">
<path d="M154.489 411.219C154.703 410.113 154.672 408.974 154.398 407.882C154.124 406.79 153.614 405.771 152.903 404.897C152.193 404.023 151.299 403.315 150.285 402.824C149.271 402.332 148.161 402.069 147.035 402.052L140.525 385.696L129.613 387.224L139.13 410.194C139.227 412.087 140.017 413.879 141.348 415.23C142.679 416.581 144.46 417.397 146.354 417.523C148.247 417.649 150.121 417.077 151.62 415.916C153.119 414.754 154.14 413.083 154.489 411.219Z" fill="#9F616A"/>
<path d="M134.385 405.472L131.003 397.415L109.933 357.338L111.078 283.182L111.298 283.153C124.781 281.373 133.903 343.447 134.285 346.09L147.598 391.585L150.767 401.613L134.385 405.472Z" fill="#F0BE90"/>
<path d="M102.009 561.842L112.253 561.841L117.126 522.357L102.006 522.358L102.009 561.842Z" fill="#9F616A"/>
<path d="M99.3952 558.5L119.571 558.499H119.572C122.981 558.499 126.252 559.853 128.663 562.262C131.074 564.671 132.429 567.939 132.429 571.346V571.764L99.3958 571.765L99.3952 558.5Z" fill="#2F2E41"/>
<path d="M7.81213 546.246L16.2179 552.098L42.8089 522.489L30.4033 513.851L7.81213 546.246Z" fill="#9F616A"/>
<path d="M7.58067 542.011L24.1337 553.537L24.1344 553.537C26.9319 555.485 28.8403 558.464 29.44 561.818C30.0396 565.172 29.2813 568.627 27.3319 571.422L27.093 571.765L-0.00897217 552.894L7.58067 542.011Z" fill="#2F2E41"/>
<path d="M96.3781 552.561L95.9354 478.492L89.4894 431.918L77.4716 472.875L77.4482 472.909L33.897 536.086L16.9508 527.507L17.0437 527.286C18.0793 524.825 42.4823 467.017 49.0416 467.017C49.6145 467.057 50.1884 466.958 50.7141 466.727C51.2398 466.496 51.7015 466.141 52.0594 465.692C53.9845 463.124 52.4168 457.673 52.4007 457.618C50.523 449.838 55.2442 447.189 56.1845 446.746L58.7136 394.578L58.9758 394.596L127.541 399.401L124.664 464.626L118.476 550.083L118.264 550.107L96.3781 552.561Z" fill="#2F2E41"/>
<path d="M128.588 410.961L128.292 410.937L54.552 404.998L54.734 380.618L58.3432 316.963L58.3637 316.919L73.0617 285.035L83.4808 280.32L98.6821 279.521L98.7191 279.53L112.592 282.965L127.024 386.48L128.588 410.961Z" fill="#F0BE90"/>
<path d="M101.064 271.35C110.473 266.211 113.93 254.423 108.787 245.022C103.644 235.621 91.8475 232.166 82.439 237.305C73.0305 242.444 69.5727 254.232 74.7159 263.633C79.8591 273.034 91.6555 276.489 101.064 271.35Z" fill="#9F616A"/>
<path d="M72.2262 259.197V251.639C72.2262 251.639 66.1258 244.46 72.8362 242.651C72.8362 242.651 74.6663 224.567 90.5271 233.006C90.5271 233.006 112.488 229.39 110.048 242.048C110.048 242.048 115.538 238.744 113.708 247.183L110.169 260.777C110.169 260.777 111.878 251.797 106.388 250.591L103.338 248.783C103.338 248.783 94.7973 257.222 81.9867 246.975C81.9867 246.975 76.4964 245.665 77.1064 251.091C77.7164 256.516 72.2262 259.197 72.2262 259.197Z" fill="#2F2E41"/>
<path d="M89.7301 392.755C89.7423 391.629 89.5073 390.514 89.0417 389.489C88.576 388.463 87.891 387.552 87.0349 386.82C86.1788 386.088 85.1723 385.552 84.0865 385.25C83.0007 384.949 81.8619 384.888 80.7504 385.074L71.4092 370.15L60.9484 373.61L74.4362 394.501C74.8721 396.346 75.9703 397.967 77.5227 399.057C79.0751 400.148 80.9738 400.631 82.859 400.416C84.7442 400.201 86.4849 399.302 87.7513 397.89C89.0177 396.478 89.7217 394.651 89.7301 392.755Z" fill="#9F616A"/>
<path d="M65.6037 388.051L48.7042 353.767L48.7191 353.684C48.7872 353.304 55.5899 315.563 60.7927 301.69C66.0284 287.729 73.1951 284.926 73.4976 284.814L73.6488 284.758L80.0748 290.917L71.1733 350.285L80.7684 378.918L65.6037 388.051Z" fill="#F0BE90"/>
<path d="M582.596 36H525V93.551H582.596V36Z" fill="#F1F1F1"/>
<path d="M224.596 199H167V256.551H224.596V199Z" fill="#F1F1F1"/>
<path d="M180 238.181H553.988V49H180V238.181Z" fill="white"/>
<path d="M513 115H320V125H513V115Z" fill="#E5E5E5"/>
<path d="M513 138H320V148H513V138Z" fill="#E5E5E5"/>
<path d="M512.632 172.626H459.157V180.9H512.632V172.626Z" fill="#F0BE90"/>
<path d="M557 241H180V55H557V241ZM186.119 235.13H550.881V60.8703H186.119V235.13Z" fill="#E5E5E5"/>
<path d="M211.3 575.502H-265.748C-266.08 575.502 -266.398 575.37 -266.633 575.136C-266.868 574.901 -267 574.583 -267 574.251C-267 573.919 -266.868 573.601 -266.633 573.366C-266.398 573.132 -266.08 573 -265.748 573H211.3C211.632 573 211.95 573.132 212.185 573.366C212.42 573.601 212.552 573.919 212.552 574.251C212.552 574.583 212.42 574.901 212.185 575.136C211.95 575.37 211.632 575.502 211.3 575.502Z" fill="#CBCBCB"/>
<path d="M496.917 398.532C497.092 399.449 497.483 402.712 497.645 404.803C498.104 409.63 497.767 414.633 495.811 419.137C495.501 419.838 495.191 421.078 492.238 420.283C489.163 419.46 487.545 418.314 487.896 417.289C488.705 414.781 489.757 412.125 489.244 409.428C488.516 405.558 488.489 401.715 487.37 398.006C487.195 397.386 486.992 396.766 486.79 396.159L486.669 395.768L486.628 395.673L486.561 395.498C486.48 395.269 486.359 394.986 486.089 394.945C485.914 394.932 485.752 395.04 485.63 395.161C485.576 395.215 485.523 395.296 485.482 395.363L485.428 395.471C485.415 395.498 485.428 395.498 485.401 395.525L483.095 397.467C481.733 398.627 480.358 399.759 478.875 400.744C476.326 402.443 473.346 403.508 470.649 404.991C470.015 405.342 469.611 406.299 468.936 406.704C468.37 407.041 467.453 407.634 466.765 407.783C466.469 407.85 466.145 407.89 465.983 408.133C465.228 409.266 464.338 408.538 462.733 405.423C462.383 404.735 461.722 403.966 461.682 403.36C461.682 403.333 461.668 403.279 461.668 403.252C461.25 400.986 462.585 401.27 463.34 400.69C467.076 397.858 470.932 395.215 474.748 392.491L478.295 390.037C478.888 389.619 479.468 389.201 480.034 388.756L481.167 387.879C481.693 387.475 482.219 387.057 482.772 386.679C483.945 385.843 485.253 384.899 486.588 385.088H486.561C487.276 384.98 488.017 384.967 488.759 385.074C489.46 385.196 490.161 385.412 490.768 385.789C491.941 386.49 492.912 387.502 493.681 388.769C494.085 389.376 494.355 390.131 494.638 390.859C494.908 391.574 495.231 392.37 495.461 393.017C496.014 394.73 496.459 396.402 496.661 398.074C496.701 398.195 496.877 398.343 496.917 398.532Z" fill="#F0BE90"/>
<path d="M443.818 446.01C446.043 444.23 453.15 437.096 457.465 432.309L464.625 423.72C466.89 420.766 469.062 417.732 471.313 414.766C471.866 414.011 472.46 413.296 472.986 412.527L474.523 410.195L477.651 405.556L479.242 403.25C479.782 402.495 480.308 401.713 480.766 400.904L483.692 396.13C484.933 394.148 486.821 390.655 489.518 392.071C492.336 393.528 492.687 396.791 490.57 400.499C489.261 402.711 488.061 404.989 486.619 407.12L482.276 413.498L480.146 416.708C479.472 417.8 478.636 418.771 477.907 419.823C476.397 421.886 474.941 423.989 473.552 426.133C465.11 438.485 454.444 449.098 443.265 458.942C433.111 467.72 421.96 475.218 410.484 482.149L402.232 486.76C400.843 487.516 399.508 488.365 398.092 489.053L393.844 491.129L389.583 493.206C388.154 493.867 386.751 494.635 385.268 495.175C382.328 496.348 379.389 497.494 376.422 498.6C373.887 499.625 371.23 500.286 368.601 501.014L360.685 503.077L352.648 504.574C349.965 505.046 347.322 505.666 344.612 505.949C342.076 506.286 339.123 507.324 336.332 507.716C334.04 508.147 330.156 508.349 327.837 508.309C326.839 508.282 325.801 508.228 324.843 508.417C320.42 509.32 319.193 508.322 320.488 504.708C320.771 503.913 320.339 502.942 321.351 502.335C321.391 502.308 321.472 502.254 321.512 502.227C324.519 499.841 327.783 500.542 331.033 500.205C346.85 498.128 362.425 494.231 377.312 488.5C379.591 487.596 381.91 486.828 384.149 485.83L390.837 482.796C395.354 480.895 399.548 478.333 403.782 475.919C406.129 474.624 408.138 472.804 410.579 471.604L410.538 471.631C412.884 470.053 415.204 468.421 417.577 466.924C426.369 460.87 435.188 454.033 442.78 447.169C443.077 446.873 443.387 446.401 443.818 446.01Z" fill="#F0BE90"/>
</g>
<defs>
<clipPath id="clip0_82_343">
<rect width="621" height="626" fill="white"/>
</clipPath>
</defs>
</svg>
