<svg width="22" height="22" viewBox="0 0 22 22" fill="none" xmlns="http://www.w3.org/2000/svg">
<g clip-path="url(#clip0_82_403)">
<path d="M10.9998 0.000976562C4.93485 0.000976562 0 4.93337 0 10.9999C0 17.064 4.93485 21.9988 10.9998 21.9988C17.0655 21.9988 22 17.064 22 10.9999C22 4.93337 17.0655 0.000976562 10.9998 0.000976562ZM10.9998 19.5483C6.2855 19.5483 2.45057 15.7136 2.45057 10.9999C2.45057 6.28426 6.2855 2.44957 10.9998 2.44957C15.7146 2.44957 19.5495 6.28432 19.5495 10.9999C19.5495 15.7136 15.7146 19.5483 10.9998 19.5483Z" fill="#969696"/>
<path d="M14.6103 12.9924C13.9076 14.1982 12.6009 14.9462 11.2004 14.9462C9.02536 14.9462 7.25371 13.175 7.25371 10.9999C7.25371 8.82306 9.02536 7.05123 11.2004 7.05123C12.601 7.05123 13.9076 7.80199 14.6103 9.00542L14.7011 9.1627H17.3521L17.193 8.73589C16.7317 7.51378 15.9222 6.47469 14.8508 5.73303C13.7766 4.98945 12.5148 4.59497 11.2004 4.59497C7.6692 4.59497 4.79757 7.46906 4.79757 10.9999C4.79757 14.531 7.6692 17.4024 11.2004 17.4024C12.5148 17.4024 13.7765 17.0092 14.8508 16.2645C15.9222 15.5227 16.7317 14.4839 17.193 13.2618L17.3521 12.8348H14.7011L14.6103 12.9924Z" fill="#969696"/>
</g>
<defs>
<clipPath id="clip0_82_403">
<rect width="22" height="22" fill="white"/>
</clipPath>
</defs>
</svg>
