<svg width="70" height="83" viewBox="0 0 70 83" fill="none" xmlns="http://www.w3.org/2000/svg">
<path d="M48.9728 10.7903C49.7429 12.786 50.4925 14.7804 51.2378 16.7827C51.688 18.0124 52.0219 19.2794 52.7002 20.4425C52.8811 20.7602 53.29 21.0112 53.234 21.4112L53.2384 21.4034C53.4266 21.7457 53.6813 22.0639 53.7948 22.4258C54.2317 23.7919 54.8696 25.1583 55.1303 26.5176C55.1405 26.5747 55.2537 26.6179 55.2755 26.6919C55.3891 27.0538 55.7215 28.3611 56.0231 29.1783C56.7196 31.0606 57.3414 32.9625 57.3492 35.0526C57.3451 35.3791 58.1709 39.7179 56.197 40.2907C54.1441 40.8909 52.1827 37.0835 52.0839 36.5449C51.8582 35.2361 51.9066 33.8353 51.137 32.7029C50.0098 31.0403 49.6876 29.1326 48.975 27.3542C48.3337 25.7497 47.8958 24.085 47.2421 22.4837C46.6256 20.9856 45.6692 19.5836 45.1733 18.0404C44.7473 16.7113 44.8149 15.239 44.5549 13.8595C44.4932 13.537 44.0067 13.2732 43.9216 12.917C43.8548 12.6225 43.7084 12.1496 43.7907 11.8158C43.8289 11.6729 43.8758 11.5144 43.7685 11.4231C43.256 10.9802 42.2945 6.43133 44.691 5.74733C47.0261 5.05956 48.3076 9.05927 48.9728 10.7903Z" fill="black" fill-opacity="0.45"/>
<path d="M32.3613 37.6574C33.549 38.7993 34.7279 39.9567 35.8944 41.1175C36.6142 41.8313 37.2322 42.6316 38.1137 43.19C38.3539 43.3459 38.7683 43.3431 38.8301 43.6655C39.082 43.8383 39.3852 43.9578 39.5778 44.1794C40.3099 45.0028 41.2299 45.737 41.8112 46.64C41.8346 46.6737 41.942 46.652 41.9771 46.7026C42.1697 46.9242 42.8031 47.7537 43.2776 48.2266C44.3725 49.3264 45.417 50.4595 45.9735 52.0266C46.0587 52.2698 47.9152 55.1551 46.3964 56.4981C44.814 57.8976 42.1188 55.9371 41.8861 55.58C41.3405 54.7074 41.0078 53.6261 40.0502 53.1276C38.6421 52.3958 37.8616 51.1135 36.7717 50.0986C35.7927 49.1874 34.9791 48.133 33.9913 47.2374C33.0591 46.3935 31.8802 45.7807 31.0497 44.8503C30.3373 44.0482 29.9945 42.9097 29.4094 41.9944C29.2657 41.7799 28.7848 41.8068 28.617 41.5787C28.4805 41.3888 28.2331 41.0953 28.2108 40.8156C28.2029 40.6981 28.2001 40.5527 28.0862 40.5296C27.5279 40.4308 25.4903 37.4537 27.3514 35.8413C29.1709 34.2465 31.332 36.6664 32.3613 37.6574Z" fill="black" fill-opacity="0.45"/>
<path d="M8.05648 61.478C10.2905 62.1717 12.5114 62.8888 14.7403 63.6105C16.1101 64.0536 17.4301 64.6227 18.8695 64.8481C19.2612 64.9044 19.7342 64.76 20.051 65.0618L20.043 65.0573C20.4588 65.1271 20.8929 65.1457 21.2815 65.2825C22.7498 65.8325 24.3557 66.2133 25.7165 66.8979C25.7647 66.9251 25.8736 66.8632 25.9628 66.8928C26.355 67.042 27.7151 67.6337 28.6188 67.9271C30.7097 68.6121 32.7778 69.3561 34.6303 70.7082C34.9216 70.9238 39.2616 73.1022 38.579 75.0087C37.8728 76.9945 33.3099 76.0571 32.7708 75.7739C31.4751 75.1054 30.2638 74.1557 28.7884 74.0128C26.6305 73.8038 24.7476 72.825 22.732 72.2132C20.9231 71.6666 19.1787 70.9303 17.361 70.3992C15.661 69.9036 13.8378 69.7393 12.1751 69.121C10.7389 68.5891 9.4685 67.5753 8.0917 66.8817C7.7696 66.7207 7.23291 66.9218 6.87792 66.7629C6.58355 66.6278 6.07001 66.4309 5.82624 66.1497C5.72407 66.0305 5.61463 65.8866 5.46185 65.9136C4.75208 66.0273 0.142412 63.8203 0.979782 61.5078C1.8017 59.2789 6.11829 60.879 8.05648 61.478Z" fill="black" fill-opacity="0.45"/>
</svg>
