<svg width="761" height="468" viewBox="0 0 761 468" fill="none" xmlns="http://www.w3.org/2000/svg">
<g clip-path="url(#clip0_36_58)">
<path d="M712.637 444.654C712.443 451.877 711.234 459.036 709.044 465.921C708.995 466.081 708.941 466.239 708.889 466.398H695.483C695.497 466.255 695.511 466.095 695.526 465.921C696.419 455.641 691.313 393.816 685.151 383.115C685.691 383.983 713.676 411.988 712.637 444.654Z" fill="#F1F1F1"/>
<path d="M711.631 465.921C711.518 466.081 711.402 466.241 711.282 466.398H701.225C701.301 466.262 701.389 466.103 701.492 465.921C703.153 462.922 708.071 453.952 712.636 444.654C717.539 434.662 722.042 424.291 721.663 420.538C721.78 421.384 725.175 447.192 711.631 465.921Z" fill="#F1F1F1"/>
<path d="M84.1011 450.249C84.2448 455.614 85.143 460.931 86.7694 466.044C86.8054 466.163 86.8454 466.28 86.8844 466.398H96.841C96.8306 466.292 96.8198 466.173 96.8093 466.044C96.1455 458.409 99.938 412.492 104.514 404.545C104.114 405.19 83.3291 425.988 84.1011 450.249Z" fill="#F1F1F1"/>
<path d="M84.8482 466.044C84.9315 466.163 85.0181 466.282 85.1068 466.398H92.5765C92.5199 466.297 92.4543 466.179 92.3782 466.044C91.1443 463.816 87.492 457.155 84.1018 450.249C80.46 442.828 77.116 435.126 77.3976 432.338C77.3103 432.967 74.7892 452.134 84.8482 466.044Z" fill="#F1F1F1"/>
<path d="M570.531 348.281C495.331 316.398 427.297 317.609 363.215 337.069C264.478 319.818 196.866 322.487 153.497 348.281V268.201H570.531V348.281Z" fill="#CBCBCB"/>
<path d="M570.531 326.259C501.251 294.853 432.054 292.826 361.814 326.259C289.872 305.535 220.324 305.752 153.097 326.259V82.8158C224.572 61.4737 294.099 61.9866 361.814 82.8158C433.343 62.0585 502.978 61.4002 570.531 82.8158V326.259Z" fill="#E5E5E5"/>
<path d="M171.872 113.027L169.541 107.059C170.455 106.702 192.28 98.2612 224.311 93.9554C253.924 89.9737 298.045 89.0231 340.066 107.1L337.537 112.986C296.92 95.5136 254.105 96.4336 225.338 100.281C194.027 104.47 172.09 112.942 171.872 113.027Z" fill="white"/>
<path d="M171.872 135.449L169.541 129.482C170.455 129.125 192.28 120.684 224.311 116.378C253.924 112.396 298.045 111.446 340.066 129.523L337.537 135.408C296.92 117.936 254.105 118.855 225.338 122.704C194.027 126.893 172.09 135.364 171.872 135.449Z" fill="white"/>
<path d="M171.872 157.872L169.541 151.904C170.455 151.547 192.28 143.106 224.311 138.8C253.924 134.818 298.045 133.868 340.066 151.945L337.537 157.83C296.92 140.358 254.105 141.278 225.338 145.126C194.027 149.315 172.09 157.786 171.872 157.872Z" fill="white"/>
<path d="M171.872 180.294L169.541 174.327C170.455 173.97 192.28 165.528 224.311 161.222C253.924 157.242 298.045 156.29 340.066 174.367L337.537 180.253C296.92 162.781 254.105 163.7 225.338 167.548C194.027 171.737 172.09 180.209 171.872 180.294Z" fill="white"/>
<path d="M171.872 202.716L169.541 196.749C170.455 196.392 192.28 187.951 224.311 183.645C253.924 179.663 298.045 178.713 340.066 196.79L337.537 202.675C296.92 185.203 254.105 186.123 225.338 189.971C194.027 194.16 172.09 202.631 171.872 202.716Z" fill="white"/>
<path d="M171.872 225.139L169.541 219.171C170.455 218.814 192.28 210.373 224.311 206.067C253.924 202.086 298.045 201.135 340.066 219.212L337.537 225.098C296.92 207.625 254.105 208.545 225.338 212.393C194.027 216.582 172.09 225.053 171.872 225.139Z" fill="white"/>
<path d="M380.789 272.386L378.458 266.418C379.372 266.061 401.197 257.62 433.228 253.314C462.842 249.333 506.962 248.382 548.983 266.459L546.454 272.345C505.837 254.872 463.022 255.793 434.255 259.64C402.944 263.829 381.007 272.3 380.789 272.386Z" fill="#F0BE90"/>
<path d="M378.824 229.353V106.887L381.071 106.185C438.017 88.3885 494.688 88.392 549.507 106.195L551.721 106.914V229.19L547.388 227.554C490.341 206.014 435.117 206.001 383.252 227.516L378.824 229.353ZM463.322 204.968C490.125 204.968 517.457 209.967 545.317 219.964V111.58C493.196 95.1363 439.356 95.1452 385.227 111.607V219.815C410.098 210.012 436.59 204.976 463.322 204.968V204.968Z" fill="white"/>
<path d="M545.45 269.213L546.289 248.831L575.062 191.599C575.873 189.972 577.196 188.656 578.827 187.854C579.826 187.355 580.914 187.061 582.028 186.988C583.142 186.915 584.259 187.066 585.314 187.43C586.536 187.852 587.644 188.55 588.552 189.471C589.46 190.391 590.144 191.509 590.549 192.737C590.722 193.268 590.844 193.813 590.913 194.367C591.118 196.011 590.827 197.678 590.079 199.155L561.267 256.465L545.45 269.213Z" fill="#F0BE90"/>
<path d="M582.41 187.372L551.177 249.498L548.796 248.3L579.004 188.213C580.063 187.683 581.226 187.396 582.41 187.372Z" fill="#3F3D56"/>
<path d="M590.516 194.418L560.473 254.176L558.092 252.978L589.26 190.981C589.644 191.566 589.949 192.198 590.169 192.863C590.334 193.369 590.45 193.89 590.516 194.418V194.418Z" fill="#3F3D56"/>
<path d="M587.525 189.086L555.947 251.898L553.565 250.7L585.183 187.809C585.52 187.924 585.849 188.062 586.167 188.223C586.647 188.465 587.102 188.754 587.525 189.086V189.086Z" fill="#3F3D56"/>
<path d="M549.062 265.788L545.884 268.348L546.151 261.598C547.242 261.977 548.423 263.62 549.062 265.788Z" fill="#3F3D56"/>
<path d="M235.645 339.355L231.841 327.811L235.894 289.852C236.005 288.774 236.467 287.763 237.209 286.973C237.662 286.486 238.207 286.093 238.813 285.819C239.419 285.545 240.074 285.394 240.738 285.376C241.508 285.355 242.273 285.512 242.972 285.835C243.672 286.158 244.287 286.638 244.771 287.238C244.979 287.498 245.161 287.777 245.316 288.071C245.774 288.945 245.961 289.936 245.854 290.916L241.796 328.927L235.645 339.355Z" fill="#F0BE90"/>
<path d="M239.107 285.953L234.708 327.157L233.128 326.989L237.383 287.137C237.862 286.619 238.451 286.215 239.107 285.953V285.953Z" fill="#3F3D56"/>
<path d="M245.105 288.183L240.873 327.816L239.294 327.647L243.684 286.529C244.02 286.774 244.323 287.063 244.585 287.388C244.783 287.635 244.957 287.902 245.105 288.183V288.183Z" fill="#3F3D56"/>
<path d="M242.319 285.836L237.871 327.495L236.292 327.327L240.745 285.615C240.957 285.608 241.169 285.617 241.38 285.639C241.699 285.674 242.013 285.74 242.319 285.836V285.836Z" fill="#3F3D56"/>
<path d="M236.942 336.687L235.707 338.782L234.44 334.961C235.128 334.943 236.131 335.612 236.942 336.687Z" fill="#3F3D56"/>
<path d="M647.688 325.817C647.255 326.576 646.677 327.241 645.986 327.776C645.296 328.31 644.507 328.704 643.665 328.933C641.964 329.397 640.148 329.165 638.617 328.29C637.087 327.414 635.966 325.966 635.503 324.264C635.039 322.563 635.271 320.746 636.146 319.215C636.161 319.189 636.176 319.163 636.191 319.137C636.377 318.826 636.586 318.529 636.817 318.249L631.225 278.372L631.057 277.178L629.922 269.041L629.754 267.868L630.373 267.897L641.208 268.392L644.113 268.523L644.477 275.946L646.538 317.68C647.614 318.711 648.313 320.074 648.522 321.55C648.731 323.025 648.437 324.529 647.688 325.817H647.688Z" fill="#FFB8B8"/>
<path d="M631.09 277.539L644.848 276.276C645.561 276.209 646.219 275.862 646.678 275.311C647.137 274.76 647.36 274.05 647.297 273.336L644.749 244.713C644.503 241.956 643.172 239.41 641.05 237.634C638.927 235.859 636.187 235 633.431 235.246C630.675 235.492 628.13 236.823 626.356 238.947C624.581 241.07 623.723 243.812 623.969 246.569C623.986 246.766 624.009 246.962 624.038 247.158L628.164 275.233C628.259 275.877 628.581 276.464 629.073 276.89C629.564 277.315 630.192 277.549 630.842 277.551C630.925 277.552 631.007 277.548 631.09 277.539V277.539Z" fill="#CBCBCB"/>
<path d="M641.518 254.415C642.91 250.472 642.974 246.181 641.702 242.198C640.429 238.215 637.89 234.757 634.47 232.351C629.282 228.8 622.183 227.525 614.537 236.631C605.285 247.748 598.686 260.827 595.241 274.876L626.552 279.975C626.552 279.975 637.199 266.954 641.518 254.415Z" fill="#CBCBCB"/>
<path d="M590.878 459.556H581.95L577.704 425.108H590.879L590.878 459.556Z" fill="#FFB8B8"/>
<path d="M564.736 467.848H592.792V457.004H575.576C572.701 457.004 569.944 458.146 567.911 460.18C565.878 462.214 564.736 464.972 564.736 467.848V467.848Z" fill="#2F2E41"/>
<path d="M664.271 451.767L655.795 454.57L640.955 423.196L653.465 419.059L664.271 451.767Z" fill="#FFB8B8"/>
<path d="M642.05 467.848L668.688 459.039L665.287 448.743L648.94 454.148C646.21 455.051 643.951 457.001 642.659 459.57C641.366 462.14 641.147 465.117 642.05 467.848V467.848Z" fill="#2F2E41"/>
<path d="M621.863 223.319C631.74 223.319 639.747 215.309 639.747 205.427C639.747 195.546 631.74 187.535 621.863 187.535C611.986 187.535 603.979 195.546 603.979 205.427C603.979 215.309 611.986 223.319 621.863 223.319Z" fill="#FFB8B8"/>
<path d="M606.204 449.967L614.494 395.227C614.583 394.642 614.871 394.107 615.311 393.712C615.75 393.317 616.313 393.087 616.903 393.061C617.493 393.036 618.073 393.216 618.545 393.571C619.017 393.926 619.352 394.434 619.491 395.008L632.115 447.175C632.314 447.974 632.805 448.67 633.49 449.126C634.175 449.583 635.007 449.766 635.82 449.641L670.644 444.042C671.106 443.968 671.546 443.796 671.936 443.537C672.326 443.278 672.656 442.939 672.904 442.542C673.151 442.146 673.311 441.7 673.373 441.236C673.434 440.773 673.396 440.301 673.26 439.853L627.852 290.08C627.723 289.655 627.708 289.202 627.808 288.769L629.319 282.213C629.485 281.502 629.409 280.756 629.102 280.094C628.795 279.432 628.275 278.892 627.625 278.56C621.442 275.404 605.78 268.842 593.962 276.03C593.578 276.264 593.246 276.573 592.986 276.94C592.726 277.307 592.543 277.722 592.448 278.162L556.976 444.959C556.879 445.413 556.88 445.881 556.978 446.335C557.076 446.788 557.269 447.215 557.544 447.588C557.819 447.961 558.171 448.272 558.575 448.499C558.979 448.726 559.426 448.865 559.888 448.907L602.672 452.74C602.769 452.748 602.866 452.753 602.963 452.753C603.747 452.752 604.504 452.47 605.098 451.959C605.692 451.448 606.083 450.741 606.202 449.967L606.204 449.967Z" fill="#2F2E41"/>
<path d="M633.722 192.786C632.374 191.975 631.177 190.934 630.187 189.712C629.697 189.094 629.375 188.361 629.252 187.583C629.128 186.804 629.207 186.007 629.48 185.268C630.384 183.274 633.069 182.646 635.15 183.323C637.231 183.999 638.838 185.633 640.358 187.207C641.697 188.592 643.075 190.043 643.708 191.863C644.34 193.684 644.016 195.992 642.436 197.097C640.885 198.181 638.656 197.737 637.164 196.573C635.756 195.301 634.633 193.744 633.87 192.006L633.722 192.786Z" fill="#2F2E41"/>
<path d="M639.779 187.688C639.878 182.647 645.622 179.032 650.583 179.926C655.544 180.82 659.356 185.05 661.265 189.717C665.297 199.577 662.27 210.827 658.385 220.75C654.499 230.672 649.691 240.738 650.258 251.377C650.642 257.127 652.57 262.667 655.841 267.411C659.111 272.155 663.601 275.927 668.837 278.33C663.239 280.869 656.547 278.246 651.842 274.289C641.395 265.5 637.362 249.851 642.259 237.105C644.675 230.817 648.931 225.438 652.255 219.581C655.578 213.723 658.016 206.819 656.3 200.306C654.584 193.793 647.282 188.52 641.04 191.04L639.779 187.688Z" fill="#2F2E41"/>
<path d="M620.791 213.367C622.349 210.731 623.922 207.271 621.073 204.967C620.453 204.489 619.745 204.139 618.988 203.939C618.232 203.739 617.443 203.692 616.668 203.801C613.455 204.189 609.956 204.348 606.847 203.181C605.68 202.779 604.606 202.147 603.689 201.322C602.771 200.498 602.029 199.497 601.506 198.379C599.904 194.574 601.91 189.949 605.266 187.544C607.32 186.126 609.746 185.346 612.24 185.302C614.735 185.257 617.187 185.951 619.289 187.296C623.636 185.375 628.91 186.229 632.86 188.874C636.809 191.518 639.511 195.752 640.979 200.274C642.332 204.166 642.564 208.36 641.651 212.377C640.917 215.173 639.519 217.749 637.578 219.89C635.637 222.03 633.209 223.671 630.499 224.673C629.444 225.09 628.297 225.221 627.175 225.055C626.053 224.889 624.994 224.431 624.104 223.726C622.659 222.429 621.548 220.801 620.868 218.981C620.275 216.987 619.958 214.775 620.791 213.367Z" fill="#2F2E41"/>
<path d="M567.736 229.332C567.825 229.725 567.884 230.124 567.91 230.527L599.189 248.579L606.792 244.201L614.897 254.816L602.191 263.877C601.164 264.609 599.928 264.988 598.667 264.957C597.407 264.927 596.19 264.487 595.2 263.706L562.943 238.249C561.487 238.789 559.902 238.872 558.397 238.488C556.893 238.104 555.541 237.27 554.521 236.099C553.502 234.927 552.863 233.472 552.69 231.929C552.517 230.385 552.818 228.825 553.553 227.457C554.287 226.088 555.421 224.976 556.803 224.268C558.186 223.56 559.75 223.29 561.29 223.493C562.829 223.697 564.27 224.365 565.421 225.408C566.572 226.451 567.378 227.819 567.732 229.332L567.736 229.332Z" fill="#FFB8B8"/>
<path d="M600.236 249.435L610.345 262.543C610.633 262.915 610.997 263.221 611.414 263.44C611.83 263.659 612.289 263.786 612.759 263.812C613.229 263.838 613.698 263.762 614.136 263.59C614.574 263.418 614.97 263.153 615.297 262.814L626.741 250.925C627.704 250.213 628.516 249.317 629.132 248.29C629.748 247.263 630.156 246.124 630.331 244.939C630.507 243.754 630.447 242.546 630.155 241.384C629.863 240.222 629.344 239.129 628.629 238.168C627.914 237.207 627.017 236.397 625.988 235.783C624.96 235.17 623.821 234.766 622.636 234.593C621.45 234.421 620.243 234.485 619.083 234.78C617.922 235.076 616.831 235.597 615.873 236.315C615.774 236.389 615.677 236.465 615.581 236.542L601.227 244.571C600.816 244.801 600.46 245.117 600.182 245.498C599.904 245.878 599.712 246.314 599.617 246.775C599.523 247.237 599.529 247.713 599.636 248.172C599.742 248.631 599.946 249.062 600.233 249.435H600.236Z" fill="#CBCBCB"/>
<path d="M213.935 458.438L223.639 458.437L228.256 420.991L213.934 420.992L213.935 458.438Z" fill="#A0616A"/>
<path d="M211.46 455.268L230.571 455.267H230.571C233.801 455.267 236.899 456.551 239.183 458.836C241.467 461.121 242.75 464.22 242.75 467.451V467.847L211.46 467.848L211.46 455.268Z" fill="#2F2E41"/>
<path d="M138.376 454.235L147.971 455.686L158.131 419.351L145.552 417.209L138.376 454.235Z" fill="#A0616A"/>
<path d="M136.402 450.731L155.298 453.588L155.299 453.588C158.492 454.071 161.363 455.804 163.28 458.405C165.197 461.006 166.003 464.262 165.52 467.457L165.461 467.848L134.522 463.17L136.402 450.731Z" fill="#2F2E41"/>
<path d="M168.296 272.862L179.071 275.686L178.354 293.162L178.265 324.981C179.327 325.716 180.14 326.755 180.598 327.963C181.056 329.17 181.137 330.488 180.83 331.742C180.524 332.996 179.843 334.128 178.88 334.987C177.916 335.846 176.715 336.392 175.434 336.553C174.153 336.714 172.854 336.482 171.708 335.888C170.562 335.294 169.623 334.366 169.015 333.227C168.408 332.088 168.161 330.791 168.306 329.508C168.451 328.225 168.982 327.016 169.829 326.042L166.518 294.106L168.296 272.862Z" fill="#A0616A"/>
<path d="M166.42 252.844C166.48 251.155 167.024 249.519 167.989 248.131C168.953 246.744 170.296 245.663 171.858 245.019C173.32 244.364 174.941 244.151 176.522 244.406C178.103 244.66 179.576 245.371 180.759 246.451C181.609 247.211 182.284 248.148 182.735 249.195C183.186 250.243 183.404 251.376 183.372 252.517C183.401 262.755 181.09 277.678 181.067 277.827L181.03 278.064L165.281 283.37L166.42 252.844Z" fill="#CBCBCB"/>
<path d="M194.58 281.906L218.669 275.668L229.804 313.185L230.199 452.952L211.779 452.837L204.079 339.713L155.004 444.242L135.215 441.866L178.354 329.815C178.354 329.815 175.979 310.018 183.499 300.119L181.916 289.825L194.58 281.906Z" fill="#2F2E41"/>
<path d="M178.338 291.24C178.001 290.831 177.757 290.353 177.621 289.841C177.485 289.328 177.461 288.792 177.55 288.27L166.563 255.292C166.05 253.751 165.995 252.093 166.406 250.521C166.817 248.949 167.675 247.53 168.876 246.437L173.646 242.099L176.878 229.164L195.457 233.707L193.926 239.833L202.334 238.304L220.044 277.765L183.026 292.568L181.203 292.597C180.654 292.598 180.113 292.476 179.617 292.242C179.122 292.007 178.685 291.665 178.338 291.24V291.24Z" fill="#CBCBCB"/>
<path d="M204.124 263.396L214.74 260.022L223.471 275.175L240.397 302.114C241.687 302.167 242.93 302.611 243.962 303.386C244.994 304.161 245.767 305.232 246.178 306.456C246.588 307.68 246.618 309 246.263 310.242C245.907 311.483 245.184 312.587 244.187 313.408C243.191 314.229 241.969 314.728 240.683 314.839C239.397 314.95 238.108 314.668 236.986 314.03C235.864 313.392 234.962 312.428 234.399 311.266C233.836 310.104 233.639 308.798 233.834 307.522L213.973 282.302L204.124 263.396Z" fill="#A0616A"/>
<path d="M191.844 247.481C190.992 246.022 190.578 244.348 190.651 242.66C190.725 240.971 191.283 239.34 192.258 237.961C193.144 236.626 194.401 235.58 195.873 234.949C197.345 234.319 198.969 234.132 200.546 234.411C201.671 234.599 202.741 235.03 203.682 235.674C204.624 236.318 205.413 237.159 205.996 238.14C211.49 246.777 217.511 260.625 217.571 260.764L217.666 260.984L207.191 273.89L191.844 247.481Z" fill="#CBCBCB"/>
<path d="M190.624 226.757C198.776 226.757 205.385 220.145 205.385 211.989C205.385 203.833 198.776 197.222 190.624 197.222C182.471 197.222 175.863 203.833 175.863 211.989C175.863 220.145 182.471 226.757 190.624 226.757Z" fill="#A0616A"/>
<path d="M164.537 205.76C172.39 205.76 178.756 199.391 178.756 191.535C178.756 183.679 172.39 177.31 164.537 177.31C156.685 177.31 150.319 183.679 150.319 191.535C150.319 199.391 156.685 205.76 164.537 205.76Z" fill="#2F2E41"/>
<path d="M152.273 203.314C154.113 204.645 156.245 205.516 158.491 205.853C160.737 206.19 163.03 205.985 165.18 205.253C167.33 204.522 169.273 203.286 170.848 201.649C172.423 200.013 173.583 198.022 174.231 195.845C173.985 197.796 173.338 199.675 172.331 201.364C171.323 203.052 169.976 204.513 168.375 205.654C166.775 206.796 164.955 207.593 163.031 207.995C161.107 208.397 159.12 208.396 157.197 207.992C155.273 207.587 153.454 206.788 151.855 205.645C150.256 204.501 148.911 203.039 147.905 201.349C146.899 199.66 146.254 197.78 146.011 195.828C145.769 193.877 145.933 191.896 146.493 190.011C146.175 192.544 146.543 195.115 147.56 197.456C148.577 199.796 150.205 201.82 152.273 203.314Z" fill="#2F2E41"/>
<path d="M208.387 203.33C205.905 198.884 204.955 197.027 201.754 194.324C198.924 191.933 195.443 191.231 192.635 193.496C189.313 192.06 185.617 191.735 182.095 192.568C178.574 193.401 175.415 195.348 173.088 198.12C170.761 200.892 169.389 204.342 169.178 207.956C168.966 211.57 169.925 215.155 171.913 218.181C173.901 221.206 176.811 223.509 180.211 224.747C183.611 225.986 187.32 226.095 190.786 225.057C194.253 224.019 197.293 221.89 199.453 218.986C201.614 216.082 202.781 212.559 202.781 208.938C202.779 208.303 202.74 207.668 202.666 207.036C205.107 206.693 205.946 203.673 208.387 203.33Z" fill="#2F2E41"/>
<path d="M352.771 468H47.8004C47.5882 468 47.3846 467.916 47.2344 467.765C47.0843 467.615 47 467.412 47 467.199C47 466.987 47.0843 466.783 47.2344 466.633C47.3846 466.483 47.5882 466.398 47.8004 466.398H352.771C352.984 466.398 353.187 466.483 353.337 466.633C353.487 466.783 353.572 466.987 353.572 467.199C353.572 467.412 353.487 467.615 353.337 467.765C353.187 467.916 352.984 468 352.771 468Z" fill="#CBCBCB"/>
<path d="M760.2 468H455.229C455.016 468 454.813 467.916 454.663 467.765C454.513 467.615 454.428 467.412 454.428 467.199C454.428 466.987 454.513 466.783 454.663 466.633C454.813 466.483 455.016 466.398 455.229 466.398H760.2C760.412 466.398 760.615 466.483 760.766 466.633C760.916 466.783 761 466.987 761 467.199C761 467.412 760.916 467.615 760.766 467.765C760.615 467.916 760.412 468 760.2 468Z" fill="#CBCBCB"/>
<path d="M362.615 82.8158H361.014V325.488H362.615V82.8158Z" fill="#CBCBCB"/>
</g>
<path d="M48.9725 10.7907C49.7426 12.7864 50.4923 14.7808 51.2375 16.783C51.6877 18.0128 52.0217 19.2798 52.7 20.4429C52.8808 20.7606 53.2898 21.0116 53.2338 21.4115L53.2382 21.4037C53.4263 21.7461 53.681 22.0642 53.7946 22.4262C54.2315 23.7923 54.8693 25.1586 55.1301 26.518C55.1402 26.5751 55.2534 26.6183 55.2753 26.6923C55.3889 27.0542 55.7213 28.3615 56.0229 29.1787C56.7193 31.061 57.3412 32.9628 57.3489 35.0529C57.3449 35.3794 58.1707 39.7183 56.1967 40.2911C54.1438 40.8913 52.1824 37.0838 52.0837 36.5453C51.8579 35.2365 51.9064 33.8356 51.1367 32.7033C50.0096 31.0407 49.6873 29.133 48.9747 27.3546C48.3335 25.7501 47.8955 24.0854 47.2419 22.4841C46.6254 20.986 45.6689 19.584 45.173 18.0408C44.7471 16.7117 44.8146 15.2393 44.5546 13.8599C44.4929 13.5374 44.0065 13.2736 43.9214 12.9174C43.8545 12.6229 43.7082 12.15 43.7904 11.8162C43.8286 11.6733 43.8756 11.5148 43.7682 11.4235C43.2557 10.9806 42.2943 6.43171 44.6907 5.7477C47.0259 5.05994 48.3073 9.05965 48.9725 10.7907Z" fill="black" fill-opacity="0.45"/>
<path d="M32.3611 37.6577C33.5488 38.7995 34.7277 39.957 35.8942 41.1178C36.614 41.8316 37.232 42.6319 38.1135 43.1902C38.3537 43.3462 38.7681 43.3434 38.8298 43.6658C39.0818 43.8386 39.3849 43.9581 39.5776 44.1797C40.3097 45.0031 41.2296 45.7373 41.811 46.6403C41.8344 46.674 41.9418 46.6523 41.9769 46.7029C42.1695 46.9245 42.8029 47.754 43.2774 48.2269C44.3723 49.3267 45.4168 50.4598 45.9733 52.0269C46.0585 52.2701 47.915 55.1554 46.3962 56.4984C44.8138 57.8979 42.1186 55.9374 41.8859 55.5803C41.3403 54.7077 41.0076 53.6263 40.05 53.1279C38.6418 52.3961 37.8614 51.1138 36.7715 50.0989C35.7925 49.1877 34.9789 48.1333 33.9911 47.2376C33.0589 46.3938 31.88 45.7809 31.0494 44.8506C30.3371 44.0485 29.9942 42.91 29.4092 41.9947C29.2655 41.7802 28.7846 41.8071 28.6167 41.579C28.4803 41.3891 28.2329 41.0956 28.2106 40.8159C28.2027 40.6984 28.1999 40.553 28.0859 40.5299C27.5277 40.4311 25.49 37.454 27.3512 35.8416C29.1707 34.2468 31.3318 36.6667 32.3611 37.6577Z" fill="black" fill-opacity="0.45"/>
<path d="M8.05631 61.4782C10.2904 62.172 12.5113 62.8891 14.7402 63.6108C16.11 64.0538 17.4299 64.6229 18.8694 64.8484C19.261 64.9047 19.734 64.7602 20.0509 65.0621L20.0428 65.0575C20.4586 65.1274 20.8927 65.146 21.2813 65.2828C22.7496 65.8327 24.3556 66.2136 25.7163 66.8982C25.7645 66.9253 25.8735 66.8634 25.9626 66.8931C26.3549 67.0422 27.715 67.6339 28.6187 67.9274C30.7095 68.6124 32.7776 69.3564 34.6301 70.7085C34.9215 70.9241 39.2615 73.1024 38.5788 75.009C37.8726 76.9948 33.3097 76.0573 32.7707 75.7742C31.475 75.1057 30.2637 74.156 28.7883 74.0131C26.6304 73.8041 24.7475 72.8252 22.7318 72.2135C20.9229 71.6668 19.1786 70.9305 17.3609 70.3995C15.6608 69.9039 13.8376 69.7396 12.175 69.1212C10.7388 68.5894 9.46833 67.5756 8.09153 66.882C7.76943 66.721 7.23275 66.9221 6.87775 66.7631C6.58339 66.6281 6.06984 66.4312 5.82608 66.15C5.7239 66.0308 5.61446 65.8869 5.46169 65.9138C4.75191 66.0276 0.142244 63.8206 0.979614 61.508C1.80154 59.2792 6.11812 60.8793 8.05631 61.4782Z" fill="black" fill-opacity="0.45"/>
<defs>
<clipPath id="clip0_36_58">
<rect width="714" height="401" fill="white" transform="translate(47 67)"/>
</clipPath>
</defs>
</svg>
