<svg width="714" height="401" viewBox="0 0 714 401" fill="none" xmlns="http://www.w3.org/2000/svg">
<g clip-path="url(#clip0_3_153)">
<path d="M665.637 377.654C665.443 384.877 664.234 392.036 662.044 398.921C661.995 399.081 661.941 399.239 661.889 399.398H648.483C648.497 399.255 648.511 399.095 648.526 398.921C649.419 388.641 644.313 326.816 638.151 316.115C638.691 316.983 666.676 344.988 665.637 377.654Z" fill="#F1F1F1"/>
<path d="M664.631 398.921C664.518 399.081 664.402 399.241 664.282 399.398H654.225C654.301 399.262 654.389 399.103 654.492 398.921C656.153 395.922 661.071 386.952 665.636 377.654C670.539 367.662 675.042 357.291 674.663 353.538C674.78 354.384 678.175 380.192 664.631 398.921Z" fill="#F1F1F1"/>
<path d="M37.1011 383.249C37.2448 388.614 38.143 393.931 39.7694 399.044C39.8054 399.163 39.8454 399.28 39.8844 399.398H49.841C49.8306 399.292 49.8198 399.173 49.8093 399.044C49.1455 391.409 52.938 345.492 57.5145 337.545C57.1135 338.19 36.3291 358.988 37.1011 383.249Z" fill="#F1F1F1"/>
<path d="M37.8482 399.044C37.9315 399.163 38.0181 399.282 38.1068 399.398H45.5765C45.5199 399.297 45.4543 399.179 45.3782 399.044C44.1443 396.816 40.492 390.155 37.1018 383.249C33.46 375.828 30.116 368.126 30.3976 365.338C30.3103 365.967 27.7892 385.134 37.8482 399.044Z" fill="#F1F1F1"/>
<path d="M523.531 281.281C448.331 249.398 380.297 250.609 316.215 270.069C217.478 252.818 149.866 255.487 106.497 281.281V201.201H523.531V281.281Z" fill="#CBCBCB"/>
<path d="M523.531 259.259C454.25 227.853 385.054 225.826 314.814 259.259C242.872 238.535 173.324 238.752 106.097 259.259V15.8158C177.572 -5.52628 247.099 -5.01341 314.814 15.8158C386.343 -4.94147 455.978 -5.59979 523.531 15.8158V259.259Z" fill="#E5E5E5"/>
<path d="M124.872 46.0268L122.541 40.0595C123.455 39.7025 145.28 31.2612 177.311 26.9554C206.924 22.9737 251.045 22.0231 293.066 40.1001L290.537 45.9857C249.92 28.5136 207.105 29.4336 178.338 33.2812C147.027 37.4702 125.09 45.9415 124.872 46.0268Z" fill="white"/>
<path d="M124.872 68.4491L122.541 62.4819C123.455 62.1249 145.28 53.6836 177.311 49.3778C206.924 45.3965 251.045 44.4459 293.066 62.5225L290.537 68.4081C249.92 50.936 207.105 51.8552 178.338 55.7036C147.027 59.8926 125.09 68.3639 124.872 68.4491Z" fill="white"/>
<path d="M124.872 90.8715L122.541 84.9042C123.455 84.5472 145.28 76.106 177.311 71.8001C206.924 67.8184 251.045 66.8678 293.066 84.9449L290.537 90.8305C249.92 73.3583 207.105 74.2776 178.338 78.126C147.027 82.3149 125.09 90.7863 124.872 90.8715Z" fill="white"/>
<path d="M124.872 113.294L122.541 107.327C123.455 106.97 145.28 98.5284 177.311 94.2225C206.924 90.2416 251.045 89.2898 293.066 107.367L290.537 113.253C249.92 95.7807 207.105 96.7004 178.338 100.548C147.027 104.737 125.09 113.209 124.872 113.294Z" fill="white"/>
<path d="M124.872 135.716L122.541 129.749C123.455 129.392 145.28 120.951 177.311 116.645C206.924 112.663 251.045 111.713 293.066 129.79L290.537 135.675C249.92 118.203 207.105 119.123 178.338 122.971C147.027 127.16 125.09 135.631 124.872 135.716Z" fill="white"/>
<path d="M124.872 158.139L122.541 152.171C123.455 151.814 145.28 143.373 177.311 139.067C206.924 135.086 251.045 134.135 293.066 152.212L290.537 158.098C249.92 140.625 207.105 141.545 178.338 145.393C147.027 149.582 125.09 158.053 124.872 158.139Z" fill="white"/>
<path d="M333.789 205.386L331.458 199.418C332.372 199.061 354.197 190.62 386.228 186.314C415.842 182.333 459.962 181.382 501.983 199.459L499.454 205.345C458.837 187.872 416.022 188.793 387.255 192.64C355.944 196.829 334.007 205.3 333.789 205.386Z" fill="#F0BE90"/>
<path d="M331.824 162.353V39.887L334.071 39.1848C391.017 21.3885 447.688 21.392 502.507 39.1953L504.721 39.914V162.19L500.388 160.554C443.341 139.014 388.117 139.001 336.252 160.516L331.824 162.353ZM416.322 137.968C443.125 137.968 470.457 142.967 498.317 152.964V44.5804C446.196 28.1363 392.356 28.1452 338.227 44.6066V152.815C363.098 143.012 389.59 137.976 416.322 137.968Z" fill="white"/>
<path d="M498.45 202.213L499.289 181.831L528.062 124.599C528.873 122.972 530.196 121.656 531.827 120.854C532.826 120.355 533.914 120.061 535.028 119.988C536.142 119.915 537.259 120.066 538.314 120.43C539.536 120.852 540.644 121.55 541.552 122.471C542.46 123.391 543.144 124.509 543.549 125.737C543.722 126.268 543.844 126.813 543.913 127.367C544.118 129.011 543.827 130.678 543.079 132.155L514.267 189.465L498.45 202.213Z" fill="#F0BE90"/>
<path d="M535.41 120.372L504.177 182.498L501.796 181.3L532.004 121.213C533.063 120.683 534.226 120.396 535.41 120.372Z" fill="#3F3D56"/>
<path d="M543.516 127.418L513.473 187.176L511.092 185.978L542.26 123.981C542.644 124.566 542.949 125.198 543.169 125.863C543.334 126.369 543.45 126.89 543.516 127.418Z" fill="#3F3D56"/>
<path d="M540.525 122.086L508.947 184.898L506.565 183.7L538.183 120.809C538.52 120.924 538.849 121.062 539.167 121.223C539.647 121.465 540.102 121.754 540.525 122.086Z" fill="#3F3D56"/>
<path d="M502.062 198.788L498.884 201.348L499.151 194.598C500.242 194.977 501.423 196.62 502.062 198.788Z" fill="#3F3D56"/>
<path d="M188.645 272.355L184.841 260.811L188.894 222.852C189.005 221.774 189.467 220.763 190.209 219.973C190.662 219.486 191.207 219.093 191.813 218.819C192.419 218.545 193.074 218.394 193.738 218.376C194.508 218.355 195.273 218.512 195.972 218.835C196.672 219.158 197.287 219.638 197.771 220.238C197.979 220.498 198.161 220.777 198.316 221.071C198.774 221.945 198.961 222.936 198.854 223.916L194.796 261.927L188.645 272.355Z" fill="#F0BE90"/>
<path d="M192.107 218.953L187.708 260.157L186.128 259.989L190.383 220.137C190.862 219.619 191.451 219.215 192.107 218.953Z" fill="#3F3D56"/>
<path d="M198.105 221.183L193.873 260.816L192.294 260.647L196.684 219.529C197.02 219.774 197.323 220.063 197.585 220.388C197.783 220.635 197.957 220.902 198.105 221.183Z" fill="#3F3D56"/>
<path d="M195.319 218.836L190.871 260.495L189.292 260.327L193.745 218.615C193.957 218.608 194.169 218.617 194.38 218.639C194.699 218.674 195.013 218.74 195.319 218.836Z" fill="#3F3D56"/>
<path d="M189.942 269.687L188.707 271.782L187.44 267.961C188.128 267.943 189.131 268.612 189.942 269.687Z" fill="#3F3D56"/>
<path d="M600.688 258.817C600.255 259.576 599.677 260.241 598.986 260.776C598.296 261.31 597.507 261.704 596.665 261.933C594.964 262.397 593.148 262.165 591.617 261.29C590.087 260.414 588.966 258.966 588.503 257.264C588.039 255.563 588.271 253.746 589.146 252.215C589.161 252.189 589.176 252.163 589.191 252.137C589.377 251.826 589.586 251.529 589.817 251.249L584.225 211.372L584.057 210.178L582.922 202.041L582.754 200.868L583.373 200.897L594.208 201.392L597.113 201.523L597.477 208.946L599.538 250.68C600.614 251.711 601.313 253.074 601.522 254.55C601.731 256.025 601.437 257.529 600.688 258.817H600.688Z" fill="#FFB8B8"/>
<path d="M584.09 210.539L597.848 209.276C598.561 209.209 599.219 208.862 599.678 208.311C600.137 207.76 600.36 207.05 600.297 206.336L597.749 177.713C597.503 174.956 596.172 172.41 594.05 170.634C591.927 168.859 589.187 168 586.431 168.246C583.675 168.492 581.13 169.823 579.356 171.947C577.581 174.07 576.723 176.812 576.969 179.569C576.986 179.766 577.009 179.962 577.038 180.158L581.164 208.233C581.259 208.877 581.581 209.464 582.073 209.89C582.564 210.315 583.192 210.549 583.842 210.551C583.925 210.552 584.007 210.548 584.09 210.539Z" fill="#CBCBCB"/>
<path d="M594.518 187.415C595.91 183.472 595.974 179.181 594.702 175.198C593.429 171.215 590.89 167.757 587.47 165.351C582.282 161.8 575.183 160.525 567.537 169.631C558.285 180.748 551.686 193.827 548.241 207.876L579.552 212.975C579.552 212.975 590.199 199.954 594.518 187.415Z" fill="#CBCBCB"/>
<path d="M543.878 392.556H534.95L530.704 358.108H543.879L543.878 392.556Z" fill="#FFB8B8"/>
<path d="M517.736 400.848H545.792V390.004H528.576C525.701 390.004 522.944 391.146 520.911 393.18C518.878 395.214 517.736 397.972 517.736 400.848Z" fill="#2F2E41"/>
<path d="M617.271 384.767L608.795 387.57L593.955 356.196L606.465 352.059L617.271 384.767Z" fill="#FFB8B8"/>
<path d="M595.05 400.848L621.688 392.039L618.287 381.743L601.94 387.148C599.21 388.051 596.951 390.001 595.659 392.57C594.366 395.14 594.147 398.117 595.05 400.848Z" fill="#2F2E41"/>
<path d="M574.863 156.319C584.74 156.319 592.747 148.309 592.747 138.427C592.747 128.546 584.74 120.535 574.863 120.535C564.986 120.535 556.979 128.546 556.979 138.427C556.979 148.309 564.986 156.319 574.863 156.319Z" fill="#FFB8B8"/>
<path d="M559.204 382.967L567.494 328.227C567.583 327.642 567.871 327.107 568.311 326.712C568.75 326.317 569.313 326.087 569.903 326.061C570.493 326.036 571.073 326.216 571.545 326.571C572.017 326.926 572.352 327.434 572.491 328.008L585.115 380.175C585.314 380.974 585.805 381.67 586.49 382.126C587.175 382.583 588.007 382.766 588.82 382.641L623.644 377.042C624.106 376.968 624.546 376.796 624.936 376.537C625.326 376.278 625.656 375.939 625.904 375.542C626.151 375.146 626.311 374.7 626.373 374.236C626.434 373.773 626.396 373.301 626.26 372.853L580.852 223.08C580.723 222.655 580.708 222.202 580.808 221.769L582.319 215.213C582.485 214.502 582.409 213.756 582.102 213.094C581.795 212.432 581.275 211.892 580.625 211.56C574.442 208.404 558.78 201.842 546.962 209.03C546.578 209.264 546.246 209.573 545.986 209.94C545.726 210.307 545.543 210.722 545.448 211.162L509.976 377.959C509.879 378.413 509.88 378.881 509.978 379.335C510.076 379.788 510.269 380.215 510.544 380.588C510.819 380.961 511.171 381.272 511.575 381.499C511.979 381.726 512.426 381.865 512.888 381.907L555.672 385.74C555.769 385.748 555.866 385.753 555.963 385.753C556.747 385.752 557.504 385.47 558.098 384.959C558.692 384.448 559.083 383.741 559.202 382.967L559.204 382.967Z" fill="#2F2E41"/>
<path d="M586.722 125.786C585.374 124.975 584.177 123.934 583.187 122.712C582.697 122.094 582.375 121.361 582.252 120.583C582.128 119.804 582.207 119.007 582.48 118.268C583.384 116.274 586.069 115.646 588.15 116.323C590.231 116.999 591.838 118.633 593.358 120.207C594.697 121.592 596.075 123.043 596.708 124.863C597.34 126.684 597.016 128.992 595.436 130.097C593.885 131.181 591.656 130.737 590.164 129.573C588.756 128.301 587.633 126.744 586.87 125.006L586.722 125.786Z" fill="#2F2E41"/>
<path d="M592.779 120.688C592.878 115.647 598.622 112.032 603.583 112.926C608.544 113.82 612.356 118.05 614.265 122.717C618.297 132.577 615.27 143.827 611.385 153.75C607.499 163.672 602.691 173.738 603.258 184.377C603.642 190.127 605.57 195.667 608.841 200.411C612.111 205.155 616.601 208.927 621.837 211.33C616.239 213.869 609.547 211.246 604.842 207.289C594.395 198.5 590.362 182.851 595.259 170.105C597.675 163.817 601.931 158.438 605.255 152.581C608.578 146.723 611.016 139.819 609.3 133.306C607.584 126.793 600.282 121.52 594.04 124.04L592.779 120.688Z" fill="#2F2E41"/>
<path d="M573.791 146.367C575.349 143.731 576.922 140.271 574.073 137.967C573.453 137.489 572.745 137.139 571.988 136.939C571.232 136.739 570.443 136.692 569.668 136.801C566.455 137.189 562.956 137.348 559.847 136.181C558.68 135.779 557.606 135.147 556.689 134.322C555.771 133.498 555.029 132.497 554.506 131.379C552.904 127.574 554.91 122.949 558.266 120.544C560.32 119.126 562.746 118.346 565.24 118.302C567.735 118.257 570.187 118.951 572.289 120.296C576.636 118.375 581.91 119.229 585.86 121.874C589.809 124.518 592.511 128.752 593.979 133.274C595.332 137.166 595.564 141.36 594.651 145.377C593.917 148.173 592.519 150.749 590.578 152.89C588.637 155.03 586.209 156.671 583.499 157.673C582.444 158.09 581.297 158.221 580.175 158.055C579.053 157.889 577.994 157.431 577.104 156.726C575.659 155.429 574.548 153.801 573.868 151.981C573.275 149.987 572.958 147.775 573.791 146.367Z" fill="#2F2E41"/>
<path d="M520.736 162.332C520.825 162.725 520.884 163.124 520.91 163.527L552.189 181.579L559.792 177.201L567.897 187.816L555.191 196.876C554.164 197.609 552.928 197.988 551.667 197.957C550.407 197.927 549.19 197.487 548.2 196.706L515.943 171.249C514.487 171.789 512.902 171.872 511.397 171.488C509.893 171.104 508.541 170.27 507.521 169.099C506.502 167.927 505.863 166.472 505.69 164.929C505.517 163.385 505.818 161.825 506.553 160.457C507.287 159.088 508.421 157.976 509.803 157.268C511.186 156.56 512.75 156.29 514.29 156.493C515.829 156.697 517.27 157.365 518.421 158.408C519.572 159.451 520.378 160.819 520.732 162.332L520.736 162.332Z" fill="#FFB8B8"/>
<path d="M553.236 182.435L563.345 195.543C563.633 195.915 563.997 196.221 564.414 196.44C564.83 196.659 565.289 196.786 565.759 196.812C566.229 196.838 566.698 196.762 567.136 196.59C567.574 196.418 567.97 196.153 568.297 195.814L579.741 183.925C580.704 183.213 581.516 182.317 582.132 181.29C582.748 180.263 583.156 179.124 583.331 177.939C583.507 176.754 583.447 175.546 583.155 174.384C582.863 173.222 582.344 172.129 581.629 171.168C580.914 170.207 580.017 169.397 578.988 168.783C577.96 168.17 576.821 167.766 575.636 167.593C574.45 167.421 573.243 167.485 572.083 167.78C570.922 168.076 569.831 168.597 568.873 169.315C568.774 169.389 568.677 169.465 568.581 169.542L554.227 177.571C553.816 177.801 553.46 178.117 553.182 178.498C552.904 178.878 552.712 179.314 552.617 179.775C552.523 180.237 552.529 180.713 552.636 181.172C552.742 181.631 552.946 182.062 553.233 182.435H553.236Z" fill="#CBCBCB"/>
<path d="M166.935 391.438L176.639 391.437L181.256 353.991L166.934 353.992L166.935 391.438Z" fill="#A0616A"/>
<path d="M164.46 388.268L183.571 388.267H183.571C186.801 388.267 189.899 389.551 192.183 391.836C194.467 394.121 195.75 397.22 195.75 400.451V400.847L164.46 400.848L164.46 388.268Z" fill="#2F2E41"/>
<path d="M91.376 387.235L100.971 388.686L111.131 352.351L98.552 350.209L91.376 387.235Z" fill="#A0616A"/>
<path d="M89.4017 383.731L108.298 386.588L108.299 386.588C111.492 387.071 114.363 388.804 116.28 391.405C118.197 394.006 119.003 397.262 118.52 400.457L118.461 400.848L87.5225 396.17L89.4017 383.731Z" fill="#2F2E41"/>
<path d="M121.296 205.862L132.071 208.686L131.354 226.162L131.265 257.981C132.327 258.716 133.14 259.755 133.598 260.963C134.056 262.17 134.137 263.488 133.83 264.742C133.524 265.996 132.843 267.128 131.88 267.987C130.916 268.846 129.715 269.392 128.434 269.553C127.153 269.714 125.854 269.482 124.708 268.888C123.562 268.294 122.623 267.366 122.015 266.227C121.408 265.088 121.161 263.791 121.306 262.508C121.451 261.225 121.982 260.016 122.829 259.042L119.518 227.106L121.296 205.862Z" fill="#A0616A"/>
<path d="M119.42 185.844C119.48 184.155 120.024 182.519 120.989 181.131C121.953 179.744 123.296 178.663 124.858 178.019C126.32 177.364 127.941 177.151 129.522 177.406C131.103 177.66 132.576 178.371 133.759 179.451C134.609 180.211 135.284 181.148 135.735 182.195C136.186 183.243 136.404 184.376 136.372 185.517C136.401 195.755 134.09 210.678 134.067 210.827L134.03 211.064L118.281 216.37L119.42 185.844Z" fill="#CBCBCB"/>
<path d="M147.58 214.906L171.669 208.668L182.804 246.185L183.199 385.952L164.779 385.837L157.079 272.713L108.004 377.242L88.2152 374.866L131.354 262.815C131.354 262.815 128.979 243.018 136.499 233.119L134.916 222.825L147.58 214.906Z" fill="#2F2E41"/>
<path d="M131.338 224.24C131.001 223.831 130.757 223.353 130.621 222.841C130.485 222.328 130.461 221.792 130.55 221.27L119.563 188.292C119.05 186.751 118.995 185.093 119.406 183.521C119.817 181.949 120.675 180.53 121.876 179.437L126.646 175.099L129.878 162.164L148.457 166.707L146.926 172.833L155.334 171.304L173.044 210.765L136.026 225.568L134.203 225.597C133.654 225.598 133.113 225.476 132.617 225.242C132.122 225.007 131.685 224.665 131.338 224.24Z" fill="#CBCBCB"/>
<path d="M157.124 196.396L167.74 193.022L176.471 208.175L193.397 235.114C194.687 235.167 195.93 235.611 196.962 236.386C197.994 237.161 198.767 238.232 199.178 239.456C199.588 240.68 199.618 242 199.263 243.242C198.907 244.483 198.184 245.587 197.187 246.408C196.191 247.229 194.969 247.728 193.683 247.839C192.397 247.95 191.108 247.668 189.986 247.03C188.864 246.392 187.962 245.428 187.399 244.266C186.836 243.104 186.639 241.798 186.834 240.522L166.973 215.302L157.124 196.396Z" fill="#A0616A"/>
<path d="M144.844 180.481C143.992 179.022 143.578 177.348 143.651 175.66C143.725 173.971 144.283 172.34 145.258 170.961C146.144 169.626 147.401 168.58 148.873 167.949C150.345 167.319 151.969 167.132 153.546 167.411C154.671 167.599 155.741 168.03 156.682 168.674C157.624 169.318 158.413 170.159 158.996 171.14C164.49 179.777 170.511 193.625 170.571 193.764L170.666 193.984L160.191 206.89L144.844 180.481Z" fill="#CBCBCB"/>
<path d="M143.624 159.757C151.776 159.757 158.385 153.145 158.385 144.989C158.385 136.833 151.776 130.222 143.624 130.222C135.471 130.222 128.863 136.833 128.863 144.989C128.863 153.145 135.471 159.757 143.624 159.757Z" fill="#A0616A"/>
<path d="M117.537 138.76C125.39 138.76 131.756 132.391 131.756 124.535C131.756 116.679 125.39 110.31 117.537 110.31C109.685 110.31 103.319 116.679 103.319 124.535C103.319 132.391 109.685 138.76 117.537 138.76Z" fill="#2F2E41"/>
<path d="M105.273 136.314C107.113 137.645 109.245 138.516 111.491 138.853C113.737 139.19 116.03 138.985 118.18 138.253C120.33 137.522 122.273 136.286 123.848 134.649C125.423 133.013 126.583 131.022 127.231 128.845C126.985 130.796 126.338 132.675 125.331 134.364C124.323 136.052 122.976 137.513 121.375 138.654C119.775 139.796 117.955 140.593 116.031 140.995C114.107 141.397 112.12 141.396 110.197 140.992C108.273 140.587 106.454 139.788 104.855 138.645C103.256 137.501 101.911 136.039 100.905 134.349C99.8991 132.66 99.2544 130.78 99.0115 128.828C98.7685 126.877 98.9327 124.896 99.4935 123.011C99.175 125.544 99.5435 128.115 100.56 130.456C101.577 132.796 103.205 134.82 105.273 136.314Z" fill="#2F2E41"/>
<path d="M161.387 136.33C158.905 131.884 157.955 130.027 154.754 127.324C151.924 124.933 148.443 124.231 145.635 126.496C142.313 125.06 138.617 124.735 135.095 125.568C131.574 126.401 128.415 128.348 126.088 131.12C123.761 133.892 122.389 137.342 122.178 140.956C121.966 144.57 122.925 148.155 124.913 151.181C126.901 154.206 129.811 156.509 133.211 157.747C136.611 158.986 140.32 159.095 143.786 158.057C147.253 157.019 150.293 154.89 152.453 151.986C154.614 149.082 155.781 145.559 155.781 141.938C155.778 141.303 155.74 140.668 155.666 140.036C158.107 139.693 158.946 136.673 161.387 136.33Z" fill="#2F2E41"/>
<path d="M305.771 401H0.800448C0.588156 401 0.384558 400.916 0.234445 400.765C0.0843321 400.615 0 400.412 0 400.199C0 399.987 0.0843321 399.783 0.234445 399.633C0.384558 399.483 0.588156 399.398 0.800448 399.398H305.771C305.984 399.398 306.187 399.483 306.337 399.633C306.487 399.783 306.572 399.987 306.572 400.199C306.572 400.412 306.487 400.615 306.337 400.765C306.187 400.916 305.984 401 305.771 401Z" fill="#CBCBCB"/>
<path d="M713.2 401H408.229C408.016 401 407.813 400.916 407.663 400.765C407.513 400.615 407.428 400.412 407.428 400.199C407.428 399.987 407.513 399.783 407.663 399.633C407.813 399.483 408.016 399.398 408.229 399.398H713.2C713.412 399.398 713.615 399.483 713.766 399.633C713.916 399.783 714 399.987 714 400.199C714 400.412 713.916 400.615 713.766 400.765C713.615 400.916 713.412 401 713.2 401Z" fill="#CBCBCB"/>
<path d="M315.615 15.8158H314.014V258.488H315.615V15.8158Z" fill="#CBCBCB"/>
</g>
<defs>
<clipPath id="clip0_3_153">
<rect width="714" height="401" fill="white"/>
</clipPath>
</defs>
</svg>
