<svg width="297" height="354" viewBox="0 0 297 354" fill="none" xmlns="http://www.w3.org/2000/svg">
<g opacity="0.5" clip-path="url(#clip0_82_388)">
<path d="M252 190C255.866 190 259 186.866 259 183C259 179.134 255.866 176 252 176C248.134 176 245 179.134 245 183C245 186.866 248.134 190 252 190Z" fill="#F0BE90"/>
<path d="M162 10C164.761 10 167 7.76142 167 5C167 2.23858 164.761 0 162 0C159.239 0 157 2.23858 157 5C157 7.76142 159.239 10 162 10Z" fill="#FF6584"/>
<path d="M53 165C55.7614 165 58 162.761 58 160C58 157.239 55.7614 155 53 155C50.2386 155 48 157.239 48 160C48 162.761 50.2386 165 53 165Z" fill="#FF6584"/>
<path d="M228 148C230.761 148 233 145.761 233 143C233 140.239 230.761 138 228 138C225.239 138 223 140.239 223 143C223 145.761 225.239 148 228 148Z" fill="#F0BE90"/>
<path d="M76 216C78.7614 216 81 213.761 81 211C81 208.239 78.7614 206 76 206C73.2386 206 71 208.239 71 211C71 213.761 73.2386 216 76 216Z" fill="#F0BE90"/>
<path d="M234 230C236.761 230 239 227.761 239 225C239 222.239 236.761 220 234 220C231.239 220 229 222.239 229 225C229 227.761 231.239 230 234 230Z" fill="#E6E6E6"/>
<path d="M190 52C192.761 52 195 49.7614 195 47C195 44.2386 192.761 42 190 42C187.239 42 185 44.2386 185 47C185 49.7614 187.239 52 190 52Z" fill="#CCCCCC"/>
<path d="M1.01673 106.977C6.25224 107.306 11.3351 108.872 15.8485 111.546C20.362 114.219 24.1777 117.924 26.9827 122.357C27.7688 123.614 28.795 124.995 28.2509 126.542C28.0613 127.135 27.6761 127.646 27.1583 127.992C26.6405 128.338 26.0207 128.498 25.4002 128.446C24.6266 128.279 23.9293 127.863 23.4158 127.261C22.9022 126.659 22.6011 125.904 22.5588 125.114C22.5164 124.324 22.7353 123.542 23.1815 122.888C23.6277 122.235 24.2766 121.746 25.028 121.498C28.6591 119.949 32.3226 122.343 35.2804 124.253C42.02 128.606 49.4329 132.543 57.5994 133.039C65.1553 133.498 73.2579 130.535 77.4606 123.983C78.1958 122.836 76.3703 121.777 75.6386 122.918C71.4705 129.416 63.0445 131.75 55.7182 130.746C51.3522 130.057 47.1364 128.625 43.2535 126.514C41.2398 125.469 39.2867 124.31 37.3732 123.092C35.5523 121.822 33.6223 120.715 31.6058 119.786C28.2428 118.405 23.7907 118.513 21.4416 121.693C19.25 124.661 20.9437 129.601 24.6092 130.435C25.4133 130.593 26.2442 130.55 27.0273 130.308C27.8105 130.067 28.5214 129.635 29.0964 129.051C29.6715 128.467 30.0926 127.749 30.3221 126.962C30.5516 126.176 30.5822 125.344 30.4113 124.543C30.0456 122.795 28.7298 121.085 27.7113 119.657C24.6512 115.352 20.6643 111.789 16.0444 109.229C11.4244 106.669 6.28906 105.178 1.01661 104.867C-0.34066 104.799 -0.33712 106.91 1.01661 106.977L1.01673 106.977Z" fill="#CCCCCC"/>
<path d="M296.728 170.848C293.22 168.589 290.297 165.531 288.199 161.925C286.101 158.319 284.887 154.267 284.657 150.101C284.598 148.923 284.421 147.566 285.398 146.703C285.76 146.364 286.226 146.159 286.719 146.119C287.213 146.08 287.705 146.209 288.116 146.486C288.589 146.901 288.912 147.461 289.035 148.078C289.158 148.695 289.075 149.336 288.798 149.901C288.521 150.466 288.066 150.925 287.503 151.205C286.94 151.486 286.3 151.574 285.681 151.455C282.559 151.123 280.943 148.041 279.629 145.568C276.636 139.932 273.014 134.325 267.534 130.815C262.465 127.567 255.689 126.484 250.23 129.405C249.275 129.916 250.133 131.36 251.083 130.851C256.497 127.954 263.253 129.599 267.952 133.136C270.717 135.307 273.09 137.935 274.968 140.907C275.962 142.413 276.869 143.975 277.726 145.562C278.498 147.151 279.409 148.667 280.45 150.094C282.25 152.357 285.384 154.008 288.248 152.71C288.886 152.379 289.438 151.904 289.86 151.323C290.282 150.741 290.562 150.068 290.677 149.359C290.793 148.65 290.741 147.923 290.525 147.238C290.31 146.552 289.937 145.926 289.437 145.411C288.94 144.989 288.346 144.697 287.708 144.561C287.071 144.426 286.409 144.45 285.784 144.633C285.158 144.815 284.587 145.151 284.123 145.608C283.658 146.065 283.315 146.631 283.123 147.254C282.828 148.719 282.822 150.227 283.104 151.694C283.561 155.87 284.948 159.89 287.165 163.458C289.381 167.027 292.37 170.053 295.911 172.313C296.827 172.886 297.643 171.419 296.728 170.848L296.728 170.848Z" fill="#CCCCCC"/>
<path d="M124.191 32.4056C120.027 32.1433 115.985 30.8979 112.395 28.7715C108.805 26.6451 105.77 23.6983 103.539 20.1725C102.914 19.173 102.098 18.0746 102.531 16.8444C102.682 16.3726 102.988 15.966 103.4 15.691C103.812 15.4159 104.304 15.2887 104.798 15.3301C105.413 15.4626 105.968 15.7938 106.376 16.2727C106.785 16.7516 107.024 17.3515 107.058 17.98C107.092 18.6085 106.918 19.2306 106.563 19.7504C106.208 20.2702 105.692 20.6588 105.094 20.8562C102.206 22.0881 99.2922 20.1843 96.9398 18.6648C91.5794 15.2027 85.6836 12.0716 79.1884 11.6771C73.1788 11.3121 66.7345 13.6684 63.3918 18.8798C62.807 19.7916 64.259 20.6341 64.8409 19.7268C68.156 14.5583 74.8576 12.7021 80.6846 13.5009C84.157 14.0489 87.5101 15.1872 90.5984 16.8667C92.2 17.6979 93.7533 18.6193 95.2752 19.5878C96.7234 20.5984 98.2585 21.4784 99.8624 22.2175C102.537 23.3162 106.078 23.2304 107.946 20.7007C108.343 20.1012 108.593 19.4173 108.678 18.7037C108.763 17.9901 108.679 17.2666 108.435 16.591C108.19 15.9153 107.79 15.3063 107.268 14.8127C106.746 14.319 106.115 13.9544 105.427 13.748C104.788 13.6219 104.127 13.6565 103.504 13.8487C102.881 14.0408 102.315 14.3846 101.858 14.849C101.401 15.3135 101.066 15.8842 100.883 16.51C100.701 17.1357 100.676 17.797 100.812 18.4345C101.269 19.8571 101.998 21.177 102.96 22.3203C105.394 25.7442 108.565 28.5784 112.239 30.6143C115.914 32.6502 119.998 33.8358 124.191 34.0838C125.271 34.1372 125.268 32.4589 124.191 32.4056L124.191 32.4056Z" fill="#CCCCCC"/>
<path d="M128 85.5715H123V102H128V85.5715Z" fill="#CCCCCC"/>
<path d="M47.1569 74.1067L50.6317 70.6318L39.2143 59.2144L35.7394 62.6893L47.1569 74.1067Z" fill="#B3B3B3"/>
<path d="M187.739 108.632L191.214 112.107L202.632 100.689L199.157 97.2144L187.739 108.632Z" fill="#B3B3B3"/>
<path d="M45.7394 250.632L49.2143 254.107L60.6317 242.689L57.1568 239.214L45.7394 250.632Z" fill="#FF6584"/>
</g>
<defs>
<clipPath id="clip0_82_388">
<rect width="297" height="354" fill="white"/>
</clipPath>
</defs>
</svg>
