<svg width="31" height="30" viewBox="0 0 31 30" fill="none" xmlns="http://www.w3.org/2000/svg">
<path d="M20.5554 4.33546C21.2478 4.70206 21.9403 5.07979 22.6272 5.45736C23.0498 5.69142 23.4421 5.97188 23.9146 6.1184C24.0452 6.15815 24.2229 6.11306 24.2982 6.24576L24.2954 6.24291C24.4316 6.28838 24.5817 6.30922 24.6985 6.38472C25.1435 6.66386 25.6578 6.88102 26.0502 7.2115C26.0669 7.22308 26.1085 7.20478 26.1335 7.21937C26.2503 7.29487 26.6565 7.58961 26.9346 7.74184C27.5797 8.0988 28.2111 8.48039 28.7012 9.10538C28.7792 9.20203 30.034 10.2568 29.591 11.0115C29.1259 11.7989 27.6553 11.2439 27.5022 11.1091C27.1294 10.7875 26.8146 10.3535 26.3227 10.2426C25.6002 10.078 25.0603 9.60727 24.4319 9.28412C23.8674 8.99332 23.3472 8.62594 22.78 8.3434C22.2461 8.07846 21.6375 7.94206 21.1313 7.62786C20.6946 7.35729 20.3687 6.89526 19.9708 6.55907C19.8762 6.47863 19.6708 6.54518 19.5651 6.46443C19.4788 6.39811 19.3231 6.2993 19.2673 6.17547C19.2422 6.12198 19.2226 6.06308 19.1671 6.06709C18.9115 6.08778 17.5594 5.01088 18.1076 4.09793C18.6392 3.2012 19.9548 4.01864 20.5554 4.33546Z" fill="black" fill-opacity="0.5"/>
<path d="M14.6998 11.4841C15.184 11.9422 15.6599 12.4029 16.1359 12.8691C16.4253 13.155 16.676 13.4788 17.0403 13.6973C17.1404 13.7557 17.3126 13.7493 17.3323 13.8861C17.4352 13.9528 17.5603 13.998 17.6355 14.0862C17.9334 14.4196 18.3062 14.7079 18.5403 15.0757C18.5486 15.0898 18.593 15.0799 18.6097 15.0971C18.6877 15.1881 18.9439 15.5232 19.136 15.7147C19.5813 16.155 20.0044 16.6114 20.2223 17.2567C20.2559 17.3576 21.0026 18.5289 20.3565 19.1251C19.6883 19.7429 18.5867 18.9731 18.4948 18.8288C18.2774 18.4726 18.1487 18.0244 17.7539 17.8356C17.1783 17.5556 16.8634 17.0327 16.4209 16.6286C16.023 16.2646 15.6944 15.8386 15.2937 15.4829C14.918 15.1473 14.4286 14.9114 14.0918 14.538C13.8022 14.2132 13.6735 13.7427 13.4339 13.3692C13.3782 13.2788 13.1754 13.3037 13.1114 13.2102C13.0584 13.1337 12.9554 13.0169 12.9497 12.9C12.9468 12.8472 12.9494 12.7889 12.8994 12.7819C12.6688 12.7505 11.8497 11.5439 12.6373 10.8266C13.4026 10.1142 14.2795 11.0862 14.6998 11.4841Z" fill="black" fill-opacity="0.5"/>
<path d="M5.64879 17.559C6.05856 18.2902 6.46279 19.0267 6.86146 19.7631C7.10679 20.2146 7.29662 20.6923 7.63353 21.099C7.72542 21.2099 7.90612 21.2789 7.90088 21.4399L7.8981 21.4371C7.99278 21.5564 8.10966 21.6653 8.17659 21.8005C8.41647 22.3074 8.74801 22.8029 8.91569 23.3189C8.92406 23.3386 8.97131 23.3482 8.98247 23.3763C9.04385 23.5114 9.24203 24.0033 9.40651 24.3052C9.7801 24.9992 10.1259 25.7035 10.222 26.5288C10.2389 26.6571 10.7699 28.3114 9.97616 28.684C9.14631 29.0694 8.15752 27.7109 8.096 27.5035C7.93947 27.0045 7.8995 26.4476 7.53205 26.0539C6.98646 25.4774 6.76836 24.7488 6.39208 24.0964C6.05203 23.5089 5.79802 22.8821 5.45243 22.3001C5.12913 21.752 4.66706 21.2667 4.39093 20.6949C4.15385 20.202 4.1166 19.6146 3.9489 19.0875C3.90977 18.9641 3.69574 18.8943 3.6427 18.7622C3.60082 18.6526 3.51991 18.4753 3.53909 18.3397C3.54731 18.2815 3.56108 18.218 3.50824 18.186C3.27185 18.0488 2.66846 16.3202 3.63986 15.8747C4.58072 15.4368 5.29199 16.9266 5.64879 17.559Z" fill="black" fill-opacity="0.5"/>
</svg>
