<svg width="240" height="5" viewBox="0 0 240 5" fill="none" xmlns="http://www.w3.org/2000/svg">
<path d="M239.67 1.22166C239.587 1.19681 239.496 1.18004 239.403 1.17201C239.362 1.17027 239.32 1.17027 239.278 1.17201H239.084C238.606 1.15712 238.18 1.15711 237.736 1.15463C235.983 1.15463 234.246 1.15463 232.51 1.15463H229.857C229.877 1.11242 229.892 1.06921 229.9 1.02554C229.745 0.663094 229.499 0.715238 229.434 0.665588C229.309 0.636342 229.179 0.614707 229.047 0.601041L228.745 0.571253C228.556 0.556358 228.37 0.546424 228.185 0.536494C226.725 0.474432 225.307 0.464495 223.877 0.452083L219.608 0.432234H212.189C227.845 0.119441 214.705 0.017646 166.248 0.0623307L133.443 0.0449666L40.4362 0.00772329H16.953C12.9896 0.00772329 9.01763 -0.00965411 5.03269 0.00772329C4.03753 0.00772329 3.04238 0.00772935 2.01706 0.0449666C1.76719 0.0449666 1.51302 0.0449606 1.25023 0.0697855C1.11668 0.0697855 0.987436 0.0697794 0.819422 0.0946043C0.712356 0.101064 0.606877 0.114395 0.504937 0.134333C0.474712 0.13968 0.445765 0.147178 0.418774 0.156666C0.364109 0.171911 0.312164 0.190211 0.263684 0.211289C0.176311 0.254151 0.107181 0.308001 0.0616201 0.368687C0.0160589 0.429373 -0.00471414 0.49527 0.000896891 0.561313C0.10429 0.836869 0.431701 0.893973 0.36708 0.879078C0.411959 0.893813 0.459671 0.905481 0.509246 0.913837H0.578173H0.664333C0.93991 0.936367 1.21753 0.949623 1.49579 0.95355L2.24969 0.970929C4.24862 0.998237 6.22602 0.998238 8.20341 1.0032H10.9476C10.9266 1.08919 10.957 1.17674 11.0338 1.25145L11.1027 1.31847H10.1593C9.57767 1.31847 8.99609 1.31847 8.39727 1.35074L7.932 1.37309C7.74396 1.38566 7.55807 1.40725 7.37627 1.43764C7.28645 1.45514 7.201 1.47933 7.12209 1.50962C6.99054 1.55779 6.88831 1.62838 6.82963 1.71158C6.77095 1.79479 6.75873 1.88646 6.79468 1.97385C6.88084 2.13769 6.967 2.18983 7.28149 2.28913C7.3726 2.30553 7.46646 2.31635 7.56151 2.3214C7.75537 2.3214 7.88462 2.3214 8.03109 2.3214L20.3909 2.38842H20.2013L19.917 2.41077L19.7317 2.43807C19.5846 2.45868 19.4503 2.50252 19.344 2.56468C19.2781 2.60931 19.2288 2.66129 19.1992 2.71737C19.1697 2.77345 19.1605 2.83244 19.1722 2.89066C19.1839 2.94888 19.2163 3.00508 19.2674 3.05577C19.3184 3.10646 19.387 3.15055 19.4689 3.1853C19.5382 3.21177 19.6118 3.23423 19.6887 3.25233L19.9859 3.31688C20.2951 3.365 20.6106 3.39821 20.9294 3.41617H20.6623C20.4339 3.42858 20.2099 3.441 19.9644 3.46334L19.7662 3.48569C19.6405 3.49857 19.5213 3.5274 19.4172 3.57009C19.2923 3.52788 19.008 4.00452 19.2751 4.0492C19.3425 4.10204 19.4312 4.14464 19.5336 4.17333C19.6194 4.19898 19.7106 4.21818 19.805 4.23044C20.2688 4.28652 20.7401 4.31973 21.2137 4.32973C22.9972 4.38434 24.7463 4.38187 26.5083 4.38435L31.7727 4.362L42.293 4.30739C45.7954 4.30739 49.3108 4.30739 52.8175 4.30739L65.5779 4.3347H64.9834C58.2241 4.39179 52.8907 4.41166 49.1815 4.55564L48.8326 4.57302L48.6473 4.58791H48.6085C48.5711 4.59573 48.5382 4.6095 48.5138 4.62763C48.4929 4.65434 48.4875 4.6842 48.4984 4.71281C48.5093 4.74142 48.5358 4.76726 48.5741 4.78651L48.6258 4.79892H48.6473C49.1523 4.85638 49.6662 4.88383 50.181 4.88085C52.4427 4.86099 55.1826 4.88085 58.2629 4.88085L68.404 4.90071L114.28 4.94042L178.272 4.98759L194.276 5C199.614 5 204.956 4.97766 210.294 4.97021L218.307 4.95035H222.313C222.645 4.95035 222.977 4.95035 223.317 4.95035H223.83H224.105C224.292 4.93573 224.474 4.90388 224.644 4.85601C225.359 4.53329 225.277 4.41661 224.997 4.35951C227.375 4.37689 229.783 4.40421 232.256 4.38435C232.876 4.38435 233.501 4.36696 234.139 4.34462C234.458 4.33221 234.776 4.31979 235.108 4.29745L235.612 4.25525C235.797 4.23291 235.983 4.21057 236.168 4.18078C236.283 4.15978 236.395 4.13406 236.504 4.10383C236.634 4.07144 236.748 4.02109 236.836 3.95723C236.924 3.89337 236.984 3.81797 237.009 3.73771C237.035 3.65745 237.026 3.5748 236.983 3.49707C236.94 3.41934 236.864 3.34892 236.762 3.29205C236.697 3.25564 236.621 3.22622 236.538 3.20517L236.676 3.1853L236.887 3.15054L236.995 3.13317L237.163 3.08848C237.249 3.04132 237.309 3.08849 237.594 2.85266C237.643 2.79267 237.671 2.72755 237.677 2.66118C237.682 2.59481 237.664 2.52854 237.623 2.46627C237.583 2.404 237.522 2.34701 237.443 2.29867C237.364 2.25034 237.268 2.21164 237.163 2.18487L237.051 2.16252C237.551 2.14266 238.055 2.11535 238.576 2.07067C238.809 2.04584 239.033 2.03592 239.274 1.99868L239.481 1.96641C239.524 1.96641 239.571 1.94902 239.653 1.92668C239.649 2.11287 240.424 1.42523 239.67 1.22166ZM239.046 1.20428C239.033 1.18939 239.028 1.18442 239.046 1.20428V1.20428Z" fill="#F0BE90"/>
</svg>
