<svg width="359" height="11" viewBox="0 0 359 11" fill="none" xmlns="http://www.w3.org/2000/svg">
<path d="M358.507 2.68766C358.382 2.63299 358.247 2.59608 358.107 2.57842C358.045 2.57459 357.983 2.57459 357.92 2.57842H357.63C356.915 2.54565 356.277 2.54565 355.613 2.54019C352.991 2.54019 350.394 2.54019 347.797 2.54019H343.827C343.858 2.44732 343.88 2.35227 343.892 2.25618C343.66 1.45881 343.292 1.57352 343.196 1.46429C343.009 1.39995 342.814 1.35235 342.616 1.32229L342.164 1.25676C341.881 1.22399 341.604 1.20213 341.327 1.18029C339.142 1.04375 337.022 1.02189 334.883 0.994582L328.496 0.950915H317.4C340.818 0.262769 321.163 0.0388211 248.68 0.137128L199.608 0.0989266L60.4858 0.0169912H25.3589C19.4303 0.0169912 13.4889 -0.0212391 7.52807 0.0169912C6.03948 0.0169912 4.55089 0.0170046 3.01719 0.0989266C2.64343 0.0989266 2.26322 0.0989133 1.87013 0.153528C1.67036 0.153528 1.47704 0.153515 1.22572 0.208129C1.06557 0.222341 0.907787 0.251669 0.755302 0.295532C0.710091 0.307297 0.666791 0.323791 0.626417 0.344666C0.544646 0.378205 0.466946 0.418465 0.394428 0.464836C0.263732 0.559133 0.160325 0.677601 0.0921734 0.811111C0.0240214 0.944621 -0.00705157 1.08959 0.0013416 1.23489C0.156 1.84111 0.645752 1.96674 0.54909 1.93397C0.616222 1.96639 0.687592 1.99206 0.761747 2.01044H0.864851H0.993731C1.40595 2.06001 1.82122 2.08917 2.23745 2.09781L3.36517 2.13604C6.35523 2.19612 9.31308 2.19612 12.2709 2.20705H16.3758C16.3444 2.39622 16.3898 2.58883 16.5047 2.75319L16.6078 2.90063H15.1966C14.3266 2.90063 13.4567 2.90063 12.5609 2.97163L11.865 3.0208C11.5837 3.04846 11.3056 3.09596 11.0337 3.1628C10.8993 3.2013 10.7715 3.25454 10.6535 3.32117C10.4567 3.42713 10.3038 3.58244 10.216 3.76549C10.1282 3.94853 10.1099 4.15021 10.1637 4.34247C10.2926 4.70292 10.4215 4.81763 10.8919 5.03608C11.0282 5.07217 11.1686 5.09597 11.3108 5.10709C11.6007 5.10709 11.7941 5.10709 12.0132 5.10709L30.5013 5.25452H30.2178L29.7925 5.30369L29.5154 5.36376C29.2953 5.40909 29.0944 5.50555 28.9354 5.6423C28.8368 5.74049 28.7631 5.85483 28.7189 5.97821C28.6747 6.10158 28.6609 6.23137 28.6784 6.35945C28.696 6.48753 28.7444 6.61117 28.8208 6.72269C28.8971 6.83422 28.9998 6.93122 29.1223 7.00767C29.2258 7.0659 29.3359 7.1153 29.4509 7.15514L29.8956 7.29714C30.358 7.40301 30.8301 7.47606 31.3068 7.51558H30.9073C30.5658 7.54289 30.2307 7.5702 29.8634 7.61935L29.5669 7.66852C29.3789 7.69686 29.2006 7.76027 29.045 7.85419C28.8581 7.76134 28.4328 8.80994 28.8323 8.90825C28.9332 9.02448 29.0659 9.1182 29.219 9.18132C29.3474 9.23776 29.4838 9.28 29.6249 9.30696C30.3188 9.43033 31.0237 9.5034 31.7322 9.5254C34.4 9.64555 37.0163 9.6401 39.652 9.64557L47.5267 9.5964L63.2632 9.47626C68.5023 9.47626 73.7607 9.47626 79.0062 9.47626L98.0937 9.53633H97.2044C87.0936 9.66194 79.1157 9.70564 73.5674 10.0224L73.0454 10.0606L72.7683 10.0934H72.7103C72.6542 10.1106 72.6051 10.1409 72.5685 10.1808C72.5373 10.2395 72.5293 10.3052 72.5455 10.3682C72.5618 10.4311 72.6014 10.488 72.6587 10.5303L72.7361 10.5576H72.7683C73.5237 10.684 74.2924 10.7444 75.0624 10.7379C78.4455 10.6942 82.544 10.7379 87.1515 10.7379L102.321 10.7816L170.944 10.8689L266.665 10.9727L290.605 11C298.589 11 306.58 10.9508 314.564 10.9345L326.55 10.8908H332.543C333.04 10.8908 333.536 10.8908 334.045 10.8908H334.812H335.224C335.504 10.8586 335.776 10.7885 336.03 10.6832C337.099 9.97323 336.977 9.71655 336.558 9.59093C340.115 9.62916 343.717 9.68926 347.416 9.64557C348.344 9.64557 349.279 9.60732 350.233 9.55816C350.709 9.53086 351.186 9.50355 351.682 9.45439L352.436 9.36156C352.714 9.31241 352.991 9.26326 353.268 9.19772C353.44 9.15151 353.608 9.09493 353.77 9.02842C353.965 8.95716 354.135 8.84639 354.267 8.70591C354.399 8.56542 354.488 8.39954 354.526 8.22296C354.565 8.04639 354.551 7.86456 354.487 7.69355C354.422 7.52254 354.309 7.36762 354.157 7.24251C354.06 7.1624 353.946 7.09768 353.822 7.05137L354.028 7.00767L354.344 6.9312L354.505 6.89296L354.756 6.79466C354.885 6.69089 354.975 6.79469 355.401 6.27585C355.475 6.14388 355.517 6.00062 355.525 5.8546C355.532 5.70859 355.505 5.56279 355.445 5.42579C355.385 5.2888 355.293 5.16343 355.175 5.05708C355.056 4.95074 354.914 4.8656 354.756 4.80671L354.589 4.75754C355.336 4.71385 356.09 4.65378 356.87 4.55547C357.218 4.50086 357.553 4.47902 357.914 4.3971L358.223 4.3261C358.288 4.3261 358.359 4.28785 358.481 4.2387C358.475 4.64831 359.634 3.1355 358.507 2.68766ZM357.572 2.64942C357.553 2.61666 357.547 2.60573 357.572 2.64942V2.64942Z" fill="#F0BE90"/>
</svg>
